# xmcd
#
# Track frame offsets:
#	150
#	13657
#	24297
#	44802
#	59945
#	78665
#	100110
#	118677
#	131500
#	148227
#	163440
#	191172
#
# Disc length: 2703 seconds
#
# Revision: 5
# Processed by: cddbd v1.5.2PL0 Copyright (c) Steve Scherf et al.
# Submitted via: audiograbber 1.83.01
#
DISCID=b80a8d0c
DTITLE=Various Artist - The Best of Memory Pop Shop
DYEAR=1900
DGENRE=Blues
TTITLE0=Scott McKenzie - San Francisco
TTITLE1=The Byrds - Mr. Tambourine Man
TTITLE2=Janis Joplin - Summertime
TTITLE3=Bob Dylan - Lay Lady Lay
TTITLE4=Blood, Sweat and Tears - Spinning Wheel
TTITLE5=Chicago - I'm A Man
TTITLE6=The Square Set - That's What I Want
TTITLE7=Christie - Yellow River
TTITLE8=Oliver - Good Morning Starshine
TTITLE9=The Shuffles - Cha-La-La, I Need You
TTITLE10=Bob Dylan - Like A Rolling Stone
TTITLE11=Blood, Sweat and Tears - Variações Sobre Um Tema De Erik Satie (1o e 2
TTITLE11=o movimentos)
EXTD=
EXTT0=
EXTT1=
EXTT2=
EXTT3=
EXTT4=
EXTT5=
EXTT6=
EXTT7=
EXTT8=
EXTT9=
EXTT10=
EXTT11=
PLAYORDER=
